<svg xmlns="http://www.w3.org/2000/svg" xmlns:xlink="http://www.w3.org/1999/xlink" width="43" height="39" viewBox="0 0 43 39"><defs><path id="wt5xa" d="M264.9 2302.44a4.3 4.3 0 0 1 2.83-4.9l14.49-3.88a4.3 4.3 0 0 1 4.9 2.82l6.98 26.08a4.3 4.3 0 0 1-2.83 4.9l-14.49 3.88a4.3 4.3 0 0 1-4.9-2.82z"/><path id="wt5xc" d="M280.23 2326.8l6.76-1.81"/><path id="wt5xd" d="M261.72 2307.95l4.65 17.38"/><path id="wt5xe" d="M259.15 2313.81l2.33 8.7"/><path id="wt5xf" d="M292.63 2299.67l4.65 17.38"/><path id="wt5xg" d="M297.78 2303.46l2.33 8.7"/><clipPath id="wt5xb"><use fill="#fff" xlink:href="#wt5xa"/></clipPath></defs><g><g transform="translate(-258 -2293)"><g><use fill="#fff" fill-opacity="0" stroke="#0028be" stroke-linecap="round" stroke-linejoin="round" stroke-miterlimit="50" stroke-width="4" clip-path="url(&quot;#wt5xb&quot;)" xlink:href="#wt5xa"/></g><g><use fill="#fff" fill-opacity="0" stroke="#0028be" stroke-linecap="round" stroke-miterlimit="50" stroke-width="2" xlink:href="#wt5xc"/></g><g><use fill="#fff" fill-opacity="0" stroke="#0028be" stroke-linecap="round" stroke-miterlimit="50" stroke-width="2" xlink:href="#wt5xd"/></g><g><use fill="#fff" fill-opacity="0" stroke="#0028be" stroke-linecap="round" stroke-miterlimit="50" stroke-width="2" xlink:href="#wt5xe"/></g><g><use fill="#fff" fill-opacity="0" stroke="#0028be" stroke-linecap="round" stroke-miterlimit="50" stroke-width="2" xlink:href="#wt5xf"/></g><g><use fill="#fff" fill-opacity="0" stroke="#0028be" stroke-linecap="round" stroke-miterlimit="50" stroke-width="2" xlink:href="#wt5xg"/></g></g></g></svg>