<svg xmlns="http://www.w3.org/2000/svg" xmlns:xlink="http://www.w3.org/1999/xlink" width="31" height="41" viewBox="0 0 31 41"><defs><path id="1kdha" d="M263 2594c0-1 1-2 2-2h27c1 0 2 1 2 2v37c0 1-1 2-2 2h-27c-1 0-2-1-2-2z"/><path id="1kdhb" d="M267 2602a4 4 0 1 1 8 0 4 4 0 0 1-8 0z"/><path id="1kdhd" d="M288.5 2597.5h-10"/><path id="1kdhe" d="M288.5 2602.5h-10"/><path id="1kdhf" d="M288.5 2607.5h-10"/><path id="1kdhg" d="M288.5 2612.5h-20"/><path id="1kdhh" d="M288.5 2617.5h-20"/><path id="1kdhi" d="M281.5 2622.5h-13"/><path id="1kdhj" d="M276.5 2627.5h-8"/><path id="1kdhk" d="M288.5 2622.5h-4"/><path id="1kdhl" d="M288.5 2627.5h-9"/><path id="1kdhn" d="M269.5 2605.5l-2 1"/><path id="1kdho" d="M272.5 2605.5l2 1"/><clipPath id="1kdhc"><use fill="#fff" xlink:href="#1kdha"/></clipPath><clipPath id="1kdhm"><use fill="#fff" xlink:href="#1kdhb"/></clipPath></defs><g><g transform="translate(-263 -2592)"><g/><g><g><use fill="#fff" xlink:href="#1kdha"/><use fill="#fff" fill-opacity="0" stroke="#0028be" stroke-linecap="round" stroke-linejoin="round" stroke-miterlimit="50" stroke-width="4" clip-path="url(&quot;#1kdhc&quot;)" xlink:href="#1kdha"/></g><g><use fill="#fff" fill-opacity="0" stroke="#0028be" stroke-linecap="round" stroke-miterlimit="50" stroke-width="2" xlink:href="#1kdhd"/></g><g><use fill="#fff" fill-opacity="0" stroke="#0028be" stroke-linecap="round" stroke-miterlimit="50" stroke-width="2" xlink:href="#1kdhe"/></g><g><use fill="#fff" fill-opacity="0" stroke="#0028be" stroke-linecap="round" stroke-miterlimit="50" stroke-width="2" xlink:href="#1kdhf"/></g><g><use fill="#fff" fill-opacity="0" stroke="#0028be" stroke-linecap="round" stroke-miterlimit="50" stroke-width="2" xlink:href="#1kdhg"/></g><g><use fill="#fff" fill-opacity="0" stroke="#0028be" stroke-linecap="round" stroke-miterlimit="50" stroke-width="2" xlink:href="#1kdhh"/></g><g><use fill="#fff" fill-opacity="0" stroke="#0028be" stroke-linecap="round" stroke-miterlimit="50" stroke-width="2" xlink:href="#1kdhi"/></g><g><use fill="#fff" fill-opacity="0" stroke="#0028be" stroke-linecap="round" stroke-miterlimit="50" stroke-width="2" xlink:href="#1kdhj"/></g><g><use fill="#fff" fill-opacity="0" stroke="#0028be" stroke-linecap="round" stroke-miterlimit="50" stroke-width="2" xlink:href="#1kdhk"/></g><g><use fill="#fff" fill-opacity="0" stroke="#0028be" stroke-linecap="round" stroke-miterlimit="50" stroke-width="2" xlink:href="#1kdhl"/></g><g><use fill="#fff" fill-opacity="0" stroke="#0028be" stroke-miterlimit="50" stroke-width="4" clip-path="url(&quot;#1kdhm&quot;)" xlink:href="#1kdhb"/></g><g><use fill="#fff" fill-opacity="0" stroke="#0028be" stroke-linecap="round" stroke-miterlimit="50" stroke-width="2" xlink:href="#1kdhn"/></g><g><use fill="#fff" fill-opacity="0" stroke="#0028be" stroke-linecap="round" stroke-miterlimit="50" stroke-width="2" xlink:href="#1kdho"/></g></g></g></g></svg>