<svg xmlns="http://www.w3.org/2000/svg" xmlns:xlink="http://www.w3.org/1999/xlink" width="194" height="50" viewBox="0 0 194 50"><defs><path id="1zbda" d="M111 56.79V39.43h9.43c3.47 0 6.12.75 7.93 2.25 1.8 1.5 2.71 3.65 2.71 6.46 0 2.76-.9 4.9-2.71 6.4s-4.45 2.25-7.93 2.25H111zM121.07 30H161v50h-50V66.21h10.07c4.43 0 8.28-.72 11.54-2.17a16.84 16.84 0 0 0 7.53-6.29 17.36 17.36 0 0 0 2.65-9.6c0-3.72-.88-6.94-2.65-9.65a17.14 17.14 0 0 0-7.53-6.29c-3.26-1.47-7.11-2.21-11.54-2.21z"/><path id="1zbdb" d="M302.69 47.67l2.12.64-5.92 10v6.72h-2.29v-6.71l-5.88-10.01 2.12-.64 4.92 8.66zm-25.42 2.6h-.07l-2.53 7.97h5.13zm-3.15 9.5l-1.77 5.6-2.26-.46 5.78-16.9h2.74l5.78 16.9-2.26.45-1.78-5.59zm-19.46-10.24V63.5h1.88c2.77 0 4.9-.54 4.9-6.97 0-6.48-2.33-7-4.35-7h-2.43zm-2.3 0h-1.84V48h6.02c4.58 0 7.29 1.5 7.29 8.53 0 3.75-.28 8.5-7.22 8.5h-6.1V63.5h1.86zm-17.34 0h-3.08V48h8.49v1.53h-3.12V63.5h3.12v1.53h-8.49V63.5h3.08zm-23.84 15.5zm0 0V48h2.3v15.5h9.36v1.53zm-39-9.1l3.21-.02c2.13-.03 3.36-1.23 3.36-3.38 0-2.1-1.47-3-3.94-3h-2.63zm0 9.1h-2.3V48h4.97c4.03 0 6.3 1.61 6.3 4.53 0 3.17-2.4 4.92-5.55 4.92h-3.42z"/><path id="1zbdc" d="M195.13 49.38c4.04 0 3.94 3.9 3.94 7.13 0 2.96.03 7.14-3.94 7.14-3.21 0-3.93-2.55-3.93-7.14 0-2.5-.1-7.13 3.93-7.13zm0-1.6c-6.09 0-6.32 5.92-6.32 8.73 0 2.2-.18 8.75 6.32 8.75 6.44 0 6.33-6.61 6.33-8.75 0-2.25.1-8.74-6.33-8.74z"/></defs><g><g transform="translate(-111 -30)"><g><use fill="#0028be" xlink:href="#1zbda"/></g><g><use xlink:href="#1zbdb"/></g><g><use fill="#212121" xlink:href="#1zbdc"/></g></g></g></svg>